<svg xmlns="http://www.w3.org/2000/svg" xmlns:xlink="http://www.w3.org/1999/xlink" width="933" zoomAndPan="magnify" viewBox="0 0 699.75 341.249999" height="455" preserveAspectRatio="xMidYMid meet" version="1.0"><defs><g/></defs><g fill="#1b4965" fill-opacity="1"><g transform="translate(48.726766, 220.170532)"><g><path d="M 28.015625 1.6875 C 23.285156 1.6875 19.644531 0.378906 17.09375 -2.234375 C 14.539062 -4.847656 13.265625 -8.644531 13.265625 -13.625 L 13.265625 -116.515625 C 13.265625 -121.378906 14.566406 -125.113281 17.171875 -127.71875 C 19.785156 -130.332031 23.523438 -131.640625 28.390625 -131.640625 L 92.25 -131.640625 C 95.976562 -131.640625 98.804688 -130.675781 100.734375 -128.75 C 102.671875 -126.820312 103.640625 -124.050781 103.640625 -120.4375 C 103.640625 -116.707031 102.671875 -113.875 100.734375 -111.9375 C 98.804688 -110.007812 95.976562 -109.046875 92.25 -109.046875 L 42.203125 -109.046875 L 42.203125 -76.9375 L 88.140625 -76.9375 C 91.867188 -76.9375 94.726562 -75.96875 96.71875 -74.03125 C 98.71875 -72.101562 99.71875 -69.335938 99.71875 -65.734375 C 99.71875 -62.117188 98.71875 -59.316406 96.71875 -57.328125 C 94.726562 -55.335938 91.867188 -54.34375 88.140625 -54.34375 L 42.203125 -54.34375 L 42.203125 -13.625 C 42.203125 -3.414062 37.472656 1.6875 28.015625 1.6875 Z M 28.015625 1.6875 "/></g></g></g><g fill="#1b4965" fill-opacity="1"><g transform="translate(151.42604, 220.170532)"><g><path d="M 25.015625 1.5 C 20.410156 1.5 16.894531 0.160156 14.46875 -2.515625 C 12.039062 -5.191406 10.828125 -8.957031 10.828125 -13.8125 L 10.828125 -77.6875 C 10.828125 -82.664062 12.039062 -86.492188 14.46875 -89.171875 C 16.894531 -91.847656 20.410156 -93.1875 25.015625 -93.1875 C 29.503906 -93.1875 32.960938 -91.847656 35.390625 -89.171875 C 37.816406 -86.492188 39.03125 -82.664062 39.03125 -77.6875 L 39.03125 -13.8125 C 39.03125 -8.957031 37.847656 -5.191406 35.484375 -2.515625 C 33.117188 0.160156 29.628906 1.5 25.015625 1.5 Z M 25.015625 -108.5 C 19.785156 -108.5 15.769531 -109.710938 12.96875 -112.140625 C 10.175781 -114.566406 8.78125 -118.019531 8.78125 -122.5 C 8.78125 -127.101562 10.175781 -130.617188 12.96875 -133.046875 C 15.769531 -135.472656 19.785156 -136.6875 25.015625 -136.6875 C 30.242188 -136.6875 34.226562 -135.472656 36.96875 -133.046875 C 39.707031 -130.617188 41.078125 -127.101562 41.078125 -122.5 C 41.078125 -118.019531 39.707031 -114.566406 36.96875 -112.140625 C 34.226562 -109.710938 30.242188 -108.5 25.015625 -108.5 Z M 25.015625 -108.5 "/></g></g></g><g fill="#1b4965" fill-opacity="1"><g transform="translate(197.733979, 220.170532)"><g><path d="M 20.546875 1.3125 C 17.054688 1.3125 14.253906 0.347656 12.140625 -1.578125 C 10.023438 -3.515625 8.9375 -5.972656 8.875 -8.953125 C 8.8125 -11.941406 10.023438 -14.992188 12.515625 -18.109375 L 41.453125 -53.59375 L 41.453125 -40.890625 L 14.5625 -73.765625 C 11.945312 -76.992188 10.703125 -80.101562 10.828125 -83.09375 C 10.953125 -86.082031 12.070312 -88.507812 14.1875 -90.375 C 16.300781 -92.25 19.101562 -93.1875 22.59375 -93.1875 C 25.957031 -93.1875 28.757812 -92.625 31 -91.5 C 33.238281 -90.375 35.351562 -88.503906 37.34375 -85.890625 L 57.328125 -60.3125 L 47.4375 -60.3125 L 67.40625 -85.890625 C 69.519531 -88.503906 71.695312 -90.375 73.9375 -91.5 C 76.1875 -92.625 78.925781 -93.1875 82.15625 -93.1875 C 85.644531 -93.1875 88.445312 -92.21875 90.5625 -90.28125 C 92.675781 -88.351562 93.765625 -85.894531 93.828125 -82.90625 C 93.890625 -79.914062 92.613281 -76.867188 90 -73.765625 L 63.109375 -40.890625 L 63.109375 -53.59375 L 92.25 -18.109375 C 94.863281 -15.117188 96.109375 -12.128906 95.984375 -9.140625 C 95.859375 -6.160156 94.707031 -3.671875 92.53125 -1.671875 C 90.351562 0.316406 87.519531 1.3125 84.03125 1.3125 C 80.664062 1.3125 77.894531 0.722656 75.71875 -0.453125 C 73.539062 -1.640625 71.394531 -3.476562 69.28125 -5.96875 L 47.4375 -33.796875 L 56.953125 -33.796875 L 35.109375 -5.96875 C 33.117188 -3.601562 31.03125 -1.796875 28.84375 -0.546875 C 26.664062 0.691406 23.898438 1.3125 20.546875 1.3125 Z M 20.546875 1.3125 "/></g></g></g><g fill="#f97721" fill-opacity="1"><g transform="translate(298.38509, 220.170532)"><g><path d="M 26.703125 1.6875 C 22.472656 1.6875 19.234375 0.503906 16.984375 -1.859375 C 14.742188 -4.234375 13.625 -7.535156 13.625 -11.765625 L 13.625 -119.890625 C 13.625 -124.117188 14.835938 -127.414062 17.265625 -129.78125 C 19.703125 -132.144531 23.035156 -133.328125 27.265625 -133.328125 C 30.992188 -133.328125 33.945312 -132.609375 36.125 -131.171875 C 38.3125 -129.742188 40.335938 -127.289062 42.203125 -123.8125 L 85.34375 -45 L 78.984375 -45 L 122.125 -123.8125 C 123.988281 -127.289062 126.007812 -129.742188 128.1875 -131.171875 C 130.375 -132.609375 133.269531 -133.328125 136.875 -133.328125 C 141.101562 -133.328125 144.367188 -132.144531 146.671875 -129.78125 C 148.984375 -127.414062 150.140625 -124.117188 150.140625 -119.890625 L 150.140625 -11.765625 C 150.140625 -7.535156 149.015625 -4.234375 146.765625 -1.859375 C 144.523438 0.503906 141.289062 1.6875 137.0625 1.6875 C 132.832031 1.6875 129.566406 0.503906 127.265625 -1.859375 C 124.960938 -4.234375 123.8125 -7.535156 123.8125 -11.765625 L 123.8125 -87.390625 L 127.90625 -87.390625 L 93.1875 -25.203125 C 91.6875 -22.835938 90.09375 -21.0625 88.40625 -19.875 C 86.726562 -18.695312 84.523438 -18.109375 81.796875 -18.109375 C 79.054688 -18.109375 76.8125 -18.726562 75.0625 -19.96875 C 73.320312 -21.21875 71.769531 -22.960938 70.40625 -25.203125 L 35.296875 -87.578125 L 39.78125 -87.578125 L 39.78125 -11.765625 C 39.78125 -7.535156 38.6875 -4.234375 36.5 -1.859375 C 34.320312 0.503906 31.054688 1.6875 26.703125 1.6875 Z M 26.703125 1.6875 "/></g></g></g><g fill="#f97721" fill-opacity="1"><g transform="translate(458.222594, 220.170532)"><g><path d="M 58.453125 2.046875 C 47.617188 2.046875 38.3125 0.0859375 30.53125 -3.828125 C 22.75 -7.742188 16.769531 -13.28125 12.59375 -20.4375 C 8.425781 -27.601562 6.34375 -36.039062 6.34375 -45.75 C 6.34375 -55.207031 8.332031 -63.515625 12.3125 -70.671875 C 16.300781 -77.835938 21.875 -83.441406 29.03125 -87.484375 C 36.195312 -91.523438 44.320312 -93.546875 53.40625 -93.546875 C 60 -93.546875 65.972656 -92.457031 71.328125 -90.28125 C 76.679688 -88.101562 81.285156 -84.988281 85.140625 -80.9375 C 89.003906 -76.894531 91.929688 -71.976562 93.921875 -66.1875 C 95.921875 -60.40625 96.921875 -53.96875 96.921875 -46.875 C 96.921875 -44.507812 96.171875 -42.734375 94.671875 -41.546875 C 93.179688 -40.367188 91.003906 -39.78125 88.140625 -39.78125 L 29.5 -39.78125 L 29.5 -54.34375 L 76.5625 -54.34375 L 73.578125 -51.71875 C 73.578125 -56.820312 72.828125 -61.085938 71.328125 -64.515625 C 69.835938 -67.941406 67.691406 -70.523438 64.890625 -72.265625 C 62.085938 -74.003906 58.632812 -74.875 54.53125 -74.875 C 49.925781 -74.875 46.003906 -73.816406 42.765625 -71.703125 C 39.523438 -69.585938 37.03125 -66.535156 35.28125 -62.546875 C 33.539062 -58.566406 32.671875 -53.773438 32.671875 -48.171875 L 32.671875 -46.6875 C 32.671875 -37.21875 34.878906 -30.242188 39.296875 -25.765625 C 43.722656 -21.285156 50.296875 -19.046875 59.015625 -19.046875 C 61.992188 -19.046875 65.410156 -19.414062 69.265625 -20.15625 C 73.128906 -20.90625 76.742188 -22.09375 80.109375 -23.71875 C 82.972656 -25.082031 85.523438 -25.546875 87.765625 -25.109375 C 90.003906 -24.679688 91.742188 -23.65625 92.984375 -22.03125 C 94.234375 -20.414062 94.953125 -18.550781 95.140625 -16.4375 C 95.328125 -14.320312 94.859375 -12.234375 93.734375 -10.171875 C 92.617188 -8.117188 90.753906 -6.410156 88.140625 -5.046875 C 83.910156 -2.679688 79.148438 -0.910156 73.859375 0.265625 C 68.566406 1.453125 63.429688 2.046875 58.453125 2.046875 Z M 58.453125 2.046875 "/></g></g></g><g fill="#1b4965" fill-opacity="1"><g transform="translate(63.693871, 309.973159)"><g><path d="M 14.53125 0.515625 C 12.125 0.515625 10.003906 -0.0546875 8.171875 -1.203125 C 6.347656 -2.359375 4.925781 -4.019531 3.90625 -6.1875 C 2.882812 -8.363281 2.375 -10.898438 2.375 -13.796875 C 2.375 -16.773438 2.882812 -19.320312 3.90625 -21.4375 C 4.925781 -23.550781 6.347656 -25.191406 8.171875 -26.359375 C 10.003906 -27.523438 12.125 -28.109375 14.53125 -28.109375 C 16.945312 -28.109375 19.03125 -27.515625 20.78125 -26.328125 C 22.539062 -25.140625 23.722656 -23.546875 24.328125 -21.546875 L 23.703125 -21.546875 L 23.703125 -37.390625 C 23.703125 -38.328125 23.945312 -39.039062 24.4375 -39.53125 C 24.925781 -40.019531 25.625 -40.265625 26.53125 -40.265625 C 27.4375 -40.265625 28.140625 -40.019531 28.640625 -39.53125 C 29.148438 -39.039062 29.40625 -38.328125 29.40625 -37.390625 L 29.40625 -2.484375 C 29.40625 -1.578125 29.160156 -0.867188 28.671875 -0.359375 C 28.179688 0.140625 27.484375 0.390625 26.578125 0.390625 C 25.679688 0.390625 24.984375 0.140625 24.484375 -0.359375 C 23.992188 -0.867188 23.75 -1.578125 23.75 -2.484375 L 23.75 -7.46875 L 24.375 -6.21875 C 23.769531 -4.1875 22.59375 -2.554688 20.84375 -1.328125 C 19.09375 -0.0976562 16.988281 0.515625 14.53125 0.515625 Z M 16 -3.90625 C 17.550781 -3.90625 18.910156 -4.28125 20.078125 -5.03125 C 21.242188 -5.789062 22.15625 -6.90625 22.8125 -8.375 C 23.476562 -9.84375 23.8125 -11.648438 23.8125 -13.796875 C 23.8125 -17.046875 23.09375 -19.5 21.65625 -21.15625 C 20.226562 -22.8125 18.34375 -23.640625 16 -23.640625 C 14.414062 -23.640625 13.039062 -23.269531 11.875 -22.53125 C 10.707031 -21.800781 9.789062 -20.703125 9.125 -19.234375 C 8.46875 -17.765625 8.140625 -15.953125 8.140625 -13.796875 C 8.140625 -10.597656 8.851562 -8.148438 10.28125 -6.453125 C 11.71875 -4.753906 13.625 -3.90625 16 -3.90625 Z M 16 -3.90625 "/></g></g></g><g fill="#1b4965" fill-opacity="1"><g transform="translate(97.120443, 309.973159)"><g><path d="M 16 0.515625 C 13.21875 0.515625 10.816406 -0.0664062 8.796875 -1.234375 C 6.773438 -2.410156 5.195312 -4.070312 4.0625 -6.21875 C 2.9375 -8.375 2.375 -10.898438 2.375 -13.796875 C 2.375 -16.023438 2.691406 -18.003906 3.328125 -19.734375 C 3.972656 -21.472656 4.890625 -22.972656 6.078125 -24.234375 C 7.265625 -25.492188 8.695312 -26.453125 10.375 -27.109375 C 12.050781 -27.773438 13.925781 -28.109375 16 -28.109375 C 18.757812 -28.109375 21.144531 -27.523438 23.15625 -26.359375 C 25.175781 -25.191406 26.75 -23.539062 27.875 -21.40625 C 29.007812 -19.28125 29.578125 -16.742188 29.578125 -13.796875 C 29.578125 -11.609375 29.253906 -9.628906 28.609375 -7.859375 C 27.972656 -6.085938 27.0625 -4.578125 25.875 -3.328125 C 24.6875 -2.085938 23.253906 -1.132812 21.578125 -0.46875 C 19.898438 0.1875 18.039062 0.515625 16 0.515625 Z M 16 -3.90625 C 17.550781 -3.90625 18.910156 -4.28125 20.078125 -5.03125 C 21.242188 -5.789062 22.15625 -6.90625 22.8125 -8.375 C 23.476562 -9.84375 23.8125 -11.648438 23.8125 -13.796875 C 23.8125 -17.046875 23.09375 -19.5 21.65625 -21.15625 C 20.226562 -22.8125 18.34375 -23.640625 16 -23.640625 C 14.414062 -23.640625 13.039062 -23.269531 11.875 -22.53125 C 10.707031 -21.800781 9.789062 -20.703125 9.125 -19.234375 C 8.46875 -17.765625 8.140625 -15.953125 8.140625 -13.796875 C 8.140625 -10.597656 8.851562 -8.148438 10.28125 -6.453125 C 11.71875 -4.753906 13.625 -3.90625 16 -3.90625 Z M 16 -3.90625 "/></g></g></g><g fill="#1b4965" fill-opacity="1"><g transform="translate(129.076476, 309.973159)"><g><path d="M 6.84375 0.390625 C 5.9375 0.390625 5.238281 0.140625 4.75 -0.359375 C 4.257812 -0.867188 4.015625 -1.578125 4.015625 -2.484375 L 4.015625 -25.109375 C 4.015625 -26.054688 4.257812 -26.773438 4.75 -27.265625 C 5.238281 -27.753906 5.914062 -28 6.78125 -28 C 7.6875 -28 8.375 -27.753906 8.84375 -27.265625 C 9.320312 -26.773438 9.5625 -26.054688 9.5625 -25.109375 L 9.5625 -20.703125 L 8.9375 -21.71875 C 9.769531 -23.832031 11.070312 -25.425781 12.84375 -26.5 C 14.613281 -27.570312 16.648438 -28.109375 18.953125 -28.109375 C 21.140625 -28.109375 22.957031 -27.703125 24.40625 -26.890625 C 25.851562 -26.078125 26.9375 -24.851562 27.65625 -23.21875 C 28.375 -21.582031 28.734375 -19.519531 28.734375 -17.03125 L 28.734375 -2.484375 C 28.734375 -1.578125 28.488281 -0.867188 28 -0.359375 C 27.507812 0.140625 26.8125 0.390625 25.90625 0.390625 C 24.957031 0.390625 24.238281 0.140625 23.75 -0.359375 C 23.257812 -0.867188 23.015625 -1.578125 23.015625 -2.484375 L 23.015625 -16.6875 C 23.015625 -19.0625 22.550781 -20.796875 21.625 -21.890625 C 20.707031 -22.984375 19.269531 -23.53125 17.3125 -23.53125 C 15.007812 -23.53125 13.171875 -22.8125 11.796875 -21.375 C 10.421875 -19.945312 9.734375 -18.023438 9.734375 -15.609375 L 9.734375 -2.484375 C 9.734375 -0.566406 8.769531 0.390625 6.84375 0.390625 Z M 6.84375 0.390625 "/></g></g></g><g fill="#1b4965" fill-opacity="1"><g transform="translate(161.654663, 309.973159)"><g><path d="M 6.5625 -23.46875 C 6.03125 -23.46875 5.554688 -23.664062 5.140625 -24.0625 C 4.734375 -24.457031 4.488281 -24.992188 4.40625 -25.671875 L 3.5 -36.9375 C 3.394531 -37.875 3.640625 -38.660156 4.234375 -39.296875 C 4.835938 -39.941406 5.613281 -40.265625 6.5625 -40.265625 C 7.164062 -40.265625 7.710938 -40.125 8.203125 -39.84375 C 8.691406 -39.5625 9.054688 -39.164062 9.296875 -38.65625 C 9.546875 -38.144531 9.632812 -37.570312 9.5625 -36.9375 L 8.65625 -25.671875 C 8.613281 -24.992188 8.394531 -24.457031 8 -24.0625 C 7.601562 -23.664062 7.125 -23.46875 6.5625 -23.46875 Z M 6.5625 -23.46875 "/></g></g></g><g fill="#1b4965" fill-opacity="1"><g transform="translate(174.719876, 309.973159)"><g><path d="M 15.78125 0.515625 C 13.519531 0.515625 11.613281 0.117188 10.0625 -0.671875 C 8.519531 -1.460938 7.367188 -2.628906 6.609375 -4.171875 C 5.859375 -5.722656 5.484375 -7.613281 5.484375 -9.84375 L 5.484375 -23.1875 L 2.09375 -23.1875 C 1.34375 -23.1875 0.757812 -23.382812 0.34375 -23.78125 C -0.0703125 -24.175781 -0.28125 -24.710938 -0.28125 -25.390625 C -0.28125 -26.109375 -0.0703125 -26.65625 0.34375 -27.03125 C 0.757812 -27.414062 1.34375 -27.609375 2.09375 -27.609375 L 5.484375 -27.609375 L 5.484375 -33.421875 C 5.484375 -34.367188 5.738281 -35.085938 6.25 -35.578125 C 6.757812 -36.066406 7.46875 -36.3125 8.375 -36.3125 C 9.28125 -36.3125 9.976562 -36.066406 10.46875 -35.578125 C 10.957031 -35.085938 11.203125 -34.367188 11.203125 -33.421875 L 11.203125 -27.609375 L 17.8125 -27.609375 C 18.570312 -27.609375 19.15625 -27.414062 19.5625 -27.03125 C 19.976562 -26.65625 20.1875 -26.109375 20.1875 -25.390625 C 20.1875 -24.710938 19.976562 -24.175781 19.5625 -23.78125 C 19.15625 -23.382812 18.570312 -23.1875 17.8125 -23.1875 L 11.203125 -23.1875 L 11.203125 -10.296875 C 11.203125 -8.296875 11.625 -6.785156 12.46875 -5.765625 C 13.320312 -4.742188 14.707031 -4.234375 16.625 -4.234375 C 17.300781 -4.234375 17.894531 -4.300781 18.40625 -4.4375 C 18.914062 -4.570312 19.34375 -4.65625 19.6875 -4.6875 C 20.101562 -4.6875 20.441406 -4.546875 20.703125 -4.265625 C 20.960938 -3.984375 21.09375 -3.445312 21.09375 -2.65625 C 21.09375 -2.09375 20.988281 -1.566406 20.78125 -1.078125 C 20.570312 -0.585938 20.207031 -0.265625 19.6875 -0.109375 C 19.226562 0.0351562 18.613281 0.175781 17.84375 0.3125 C 17.070312 0.445312 16.382812 0.515625 15.78125 0.515625 Z M 15.78125 0.515625 "/></g></g></g><g fill="#1b4965" fill-opacity="1"><g transform="translate(195.364036, 309.973159)"><g/></g></g><g fill="#1b4965" fill-opacity="1"><g transform="translate(210.295708, 309.973159)"><g><path d="M 15.78125 0.515625 C 13.519531 0.515625 11.613281 0.117188 10.0625 -0.671875 C 8.519531 -1.460938 7.367188 -2.628906 6.609375 -4.171875 C 5.859375 -5.722656 5.484375 -7.613281 5.484375 -9.84375 L 5.484375 -23.1875 L 2.09375 -23.1875 C 1.34375 -23.1875 0.757812 -23.382812 0.34375 -23.78125 C -0.0703125 -24.175781 -0.28125 -24.710938 -0.28125 -25.390625 C -0.28125 -26.109375 -0.0703125 -26.65625 0.34375 -27.03125 C 0.757812 -27.414062 1.34375 -27.609375 2.09375 -27.609375 L 5.484375 -27.609375 L 5.484375 -33.421875 C 5.484375 -34.367188 5.738281 -35.085938 6.25 -35.578125 C 6.757812 -36.066406 7.46875 -36.3125 8.375 -36.3125 C 9.28125 -36.3125 9.976562 -36.066406 10.46875 -35.578125 C 10.957031 -35.085938 11.203125 -34.367188 11.203125 -33.421875 L 11.203125 -27.609375 L 17.8125 -27.609375 C 18.570312 -27.609375 19.15625 -27.414062 19.5625 -27.03125 C 19.976562 -26.65625 20.1875 -26.109375 20.1875 -25.390625 C 20.1875 -24.710938 19.976562 -24.175781 19.5625 -23.78125 C 19.15625 -23.382812 18.570312 -23.1875 17.8125 -23.1875 L 11.203125 -23.1875 L 11.203125 -10.296875 C 11.203125 -8.296875 11.625 -6.785156 12.46875 -5.765625 C 13.320312 -4.742188 14.707031 -4.234375 16.625 -4.234375 C 17.300781 -4.234375 17.894531 -4.300781 18.40625 -4.4375 C 18.914062 -4.570312 19.34375 -4.65625 19.6875 -4.6875 C 20.101562 -4.6875 20.441406 -4.546875 20.703125 -4.265625 C 20.960938 -3.984375 21.09375 -3.445312 21.09375 -2.65625 C 21.09375 -2.09375 20.988281 -1.566406 20.78125 -1.078125 C 20.570312 -0.585938 20.207031 -0.265625 19.6875 -0.109375 C 19.226562 0.0351562 18.613281 0.175781 17.84375 0.3125 C 17.070312 0.445312 16.382812 0.515625 15.78125 0.515625 Z M 15.78125 0.515625 "/></g></g></g><g fill="#1b4965" fill-opacity="1"><g transform="translate(230.939868, 309.973159)"><g><path d="M 6.84375 0.390625 C 5.9375 0.390625 5.238281 0.140625 4.75 -0.359375 C 4.257812 -0.867188 4.015625 -1.578125 4.015625 -2.484375 L 4.015625 -37.390625 C 4.015625 -38.328125 4.257812 -39.039062 4.75 -39.53125 C 5.238281 -40.019531 5.9375 -40.265625 6.84375 -40.265625 C 7.75 -40.265625 8.457031 -40.019531 8.96875 -39.53125 C 9.476562 -39.039062 9.734375 -38.328125 9.734375 -37.390625 L 9.734375 -21.71875 L 8.9375 -21.71875 C 9.769531 -23.832031 11.070312 -25.425781 12.84375 -26.5 C 14.613281 -27.570312 16.648438 -28.109375 18.953125 -28.109375 C 21.140625 -28.109375 22.957031 -27.703125 24.40625 -26.890625 C 25.851562 -26.078125 26.9375 -24.851562 27.65625 -23.21875 C 28.375 -21.582031 28.734375 -19.519531 28.734375 -17.03125 L 28.734375 -2.484375 C 28.734375 -1.578125 28.488281 -0.867188 28 -0.359375 C 27.507812 0.140625 26.8125 0.390625 25.90625 0.390625 C 24.957031 0.390625 24.238281 0.140625 23.75 -0.359375 C 23.257812 -0.867188 23.015625 -1.578125 23.015625 -2.484375 L 23.015625 -16.6875 C 23.015625 -19.0625 22.550781 -20.796875 21.625 -21.890625 C 20.707031 -22.984375 19.269531 -23.53125 17.3125 -23.53125 C 15.007812 -23.53125 13.171875 -22.8125 11.796875 -21.375 C 10.421875 -19.945312 9.734375 -18.023438 9.734375 -15.609375 L 9.734375 -2.484375 C 9.734375 -0.566406 8.769531 0.390625 6.84375 0.390625 Z M 6.84375 0.390625 "/></g></g></g><g fill="#1b4965" fill-opacity="1"><g transform="translate(263.518055, 309.973159)"><g><path d="M 6.90625 0.390625 C 5.957031 0.390625 5.238281 0.140625 4.75 -0.359375 C 4.257812 -0.867188 4.015625 -1.578125 4.015625 -2.484375 L 4.015625 -25.109375 C 4.015625 -26.054688 4.257812 -26.773438 4.75 -27.265625 C 5.238281 -27.753906 5.914062 -28 6.78125 -28 C 7.6875 -28 8.375 -27.753906 8.84375 -27.265625 C 9.320312 -26.773438 9.5625 -26.054688 9.5625 -25.109375 L 9.5625 -20.984375 L 9 -20.984375 C 9.59375 -23.242188 10.703125 -24.957031 12.328125 -26.125 C 13.953125 -27.300781 16.023438 -27.984375 18.546875 -28.171875 C 19.234375 -28.203125 19.773438 -28.03125 20.171875 -27.65625 C 20.566406 -27.28125 20.78125 -26.695312 20.8125 -25.90625 C 20.882812 -25.113281 20.710938 -24.476562 20.296875 -24 C 19.890625 -23.53125 19.25 -23.257812 18.375 -23.1875 L 17.3125 -23.078125 C 14.851562 -22.847656 12.984375 -22.070312 11.703125 -20.75 C 10.421875 -19.4375 9.78125 -17.628906 9.78125 -15.328125 L 9.78125 -2.484375 C 9.78125 -1.578125 9.546875 -0.867188 9.078125 -0.359375 C 8.609375 0.140625 7.882812 0.390625 6.90625 0.390625 Z M 6.90625 0.390625 "/></g></g></g><g fill="#1b4965" fill-opacity="1"><g transform="translate(284.614693, 309.973159)"><g><path d="M 16 0.515625 C 13.21875 0.515625 10.816406 -0.0664062 8.796875 -1.234375 C 6.773438 -2.410156 5.195312 -4.070312 4.0625 -6.21875 C 2.9375 -8.375 2.375 -10.898438 2.375 -13.796875 C 2.375 -16.023438 2.691406 -18.003906 3.328125 -19.734375 C 3.972656 -21.472656 4.890625 -22.972656 6.078125 -24.234375 C 7.265625 -25.492188 8.695312 -26.453125 10.375 -27.109375 C 12.050781 -27.773438 13.925781 -28.109375 16 -28.109375 C 18.757812 -28.109375 21.144531 -27.523438 23.15625 -26.359375 C 25.175781 -25.191406 26.75 -23.539062 27.875 -21.40625 C 29.007812 -19.28125 29.578125 -16.742188 29.578125 -13.796875 C 29.578125 -11.609375 29.253906 -9.628906 28.609375 -7.859375 C 27.972656 -6.085938 27.0625 -4.578125 25.875 -3.328125 C 24.6875 -2.085938 23.253906 -1.132812 21.578125 -0.46875 C 19.898438 0.1875 18.039062 0.515625 16 0.515625 Z M 16 -3.90625 C 17.550781 -3.90625 18.910156 -4.28125 20.078125 -5.03125 C 21.242188 -5.789062 22.15625 -6.90625 22.8125 -8.375 C 23.476562 -9.84375 23.8125 -11.648438 23.8125 -13.796875 C 23.8125 -17.046875 23.09375 -19.5 21.65625 -21.15625 C 20.226562 -22.8125 18.34375 -23.640625 16 -23.640625 C 14.414062 -23.640625 13.039062 -23.269531 11.875 -22.53125 C 10.707031 -21.800781 9.789062 -20.703125 9.125 -19.234375 C 8.46875 -17.765625 8.140625 -15.953125 8.140625 -13.796875 C 8.140625 -10.597656 8.851562 -8.148438 10.28125 -6.453125 C 11.71875 -4.753906 13.625 -3.90625 16 -3.90625 Z M 16 -3.90625 "/></g></g></g><g fill="#1b4965" fill-opacity="1"><g transform="translate(316.570727, 309.973159)"><g><path d="M 14.078125 0.390625 C 13.285156 0.390625 12.597656 0.191406 12.015625 -0.203125 C 11.429688 -0.597656 10.972656 -1.226562 10.640625 -2.09375 L 2.3125 -24.09375 C 2.007812 -24.851562 1.914062 -25.523438 2.03125 -26.109375 C 2.144531 -26.691406 2.4375 -27.148438 2.90625 -27.484375 C 3.382812 -27.828125 4 -28 4.75 -28 C 5.425781 -28 5.976562 -27.835938 6.40625 -27.515625 C 6.84375 -27.191406 7.210938 -26.578125 7.515625 -25.671875 L 14.9375 -4.8125 L 13.578125 -4.8125 L 21.265625 -25.90625 C 21.523438 -26.625 21.878906 -27.148438 22.328125 -27.484375 C 22.785156 -27.828125 23.375 -28 24.09375 -28 C 24.8125 -28 25.40625 -27.828125 25.875 -27.484375 C 26.34375 -27.148438 26.691406 -26.625 26.921875 -25.90625 L 34.453125 -4.8125 L 33.203125 -4.8125 L 40.71875 -25.796875 C 41.019531 -26.660156 41.40625 -27.242188 41.875 -27.546875 C 42.351562 -27.847656 42.894531 -28 43.5 -28 C 44.25 -28 44.820312 -27.804688 45.21875 -27.421875 C 45.613281 -27.046875 45.835938 -26.566406 45.890625 -25.984375 C 45.953125 -25.398438 45.851562 -24.769531 45.59375 -24.09375 L 37.28125 -2.09375 C 36.9375 -1.257812 36.472656 -0.632812 35.890625 -0.21875 C 35.304688 0.1875 34.632812 0.390625 33.875 0.390625 C 33.082031 0.390625 32.394531 0.1875 31.8125 -0.21875 C 31.226562 -0.632812 30.769531 -1.257812 30.4375 -2.09375 L 22.515625 -23.53125 L 25.34375 -23.53125 L 17.484375 -2.09375 C 17.179688 -1.257812 16.734375 -0.632812 16.140625 -0.21875 C 15.554688 0.1875 14.867188 0.390625 14.078125 0.390625 Z M 14.078125 0.390625 "/></g></g></g><g fill="#1b4965" fill-opacity="1"><g transform="translate(364.419945, 309.973159)"><g/></g></g><g fill="#1b4965" fill-opacity="1"><g transform="translate(379.351605, 309.973159)"><g><path d="M 6.84375 0.34375 C 5.9375 0.34375 5.238281 0.0703125 4.75 -0.46875 C 4.257812 -1.019531 4.015625 -1.785156 4.015625 -2.765625 L 4.015625 -24.828125 C 4.015625 -25.804688 4.257812 -26.5625 4.75 -27.09375 C 5.238281 -27.625 5.9375 -27.890625 6.84375 -27.890625 C 7.75 -27.890625 8.457031 -27.625 8.96875 -27.09375 C 9.476562 -26.5625 9.734375 -25.804688 9.734375 -24.828125 L 9.734375 -2.765625 C 9.734375 -1.785156 9.488281 -1.019531 9 -0.46875 C 8.507812 0.0703125 7.789062 0.34375 6.84375 0.34375 Z M 6.84375 -33.765625 C 5.707031 -33.765625 4.828125 -34.046875 4.203125 -34.609375 C 3.585938 -35.179688 3.28125 -35.972656 3.28125 -36.984375 C 3.28125 -38.046875 3.585938 -38.847656 4.203125 -39.390625 C 4.828125 -39.941406 5.707031 -40.21875 6.84375 -40.21875 C 7.976562 -40.21875 8.851562 -39.941406 9.46875 -39.390625 C 10.09375 -38.847656 10.40625 -38.046875 10.40625 -36.984375 C 10.40625 -35.972656 10.09375 -35.179688 9.46875 -34.609375 C 8.851562 -34.046875 7.976562 -33.765625 6.84375 -33.765625 Z M 6.84375 -33.765625 "/></g></g></g><g fill="#1b4965" fill-opacity="1"><g transform="translate(393.09553, 309.973159)"><g><path d="M 15.78125 0.515625 C 13.519531 0.515625 11.613281 0.117188 10.0625 -0.671875 C 8.519531 -1.460938 7.367188 -2.628906 6.609375 -4.171875 C 5.859375 -5.722656 5.484375 -7.613281 5.484375 -9.84375 L 5.484375 -23.1875 L 2.09375 -23.1875 C 1.34375 -23.1875 0.757812 -23.382812 0.34375 -23.78125 C -0.0703125 -24.175781 -0.28125 -24.710938 -0.28125 -25.390625 C -0.28125 -26.109375 -0.0703125 -26.65625 0.34375 -27.03125 C 0.757812 -27.414062 1.34375 -27.609375 2.09375 -27.609375 L 5.484375 -27.609375 L 5.484375 -33.421875 C 5.484375 -34.367188 5.738281 -35.085938 6.25 -35.578125 C 6.757812 -36.066406 7.46875 -36.3125 8.375 -36.3125 C 9.28125 -36.3125 9.976562 -36.066406 10.46875 -35.578125 C 10.957031 -35.085938 11.203125 -34.367188 11.203125 -33.421875 L 11.203125 -27.609375 L 17.8125 -27.609375 C 18.570312 -27.609375 19.15625 -27.414062 19.5625 -27.03125 C 19.976562 -26.65625 20.1875 -26.109375 20.1875 -25.390625 C 20.1875 -24.710938 19.976562 -24.175781 19.5625 -23.78125 C 19.15625 -23.382812 18.570312 -23.1875 17.8125 -23.1875 L 11.203125 -23.1875 L 11.203125 -10.296875 C 11.203125 -8.296875 11.625 -6.785156 12.46875 -5.765625 C 13.320312 -4.742188 14.707031 -4.234375 16.625 -4.234375 C 17.300781 -4.234375 17.894531 -4.300781 18.40625 -4.4375 C 18.914062 -4.570312 19.34375 -4.65625 19.6875 -4.6875 C 20.101562 -4.6875 20.441406 -4.546875 20.703125 -4.265625 C 20.960938 -3.984375 21.09375 -3.445312 21.09375 -2.65625 C 21.09375 -2.09375 20.988281 -1.566406 20.78125 -1.078125 C 20.570312 -0.585938 20.207031 -0.265625 19.6875 -0.109375 C 19.226562 0.0351562 18.613281 0.175781 17.84375 0.3125 C 17.070312 0.445312 16.382812 0.515625 15.78125 0.515625 Z M 15.78125 0.515625 "/></g></g></g><g fill="#1b4965" fill-opacity="1"><g transform="translate(413.739679, 309.973159)"><g/></g></g><g fill="#1b4965" fill-opacity="1"><g transform="translate(428.671361, 309.973159)"><g><path d="M 12.84375 0.515625 C 10.914062 0.515625 9.1875 0.140625 7.65625 -0.609375 C 6.132812 -1.367188 4.9375 -2.390625 4.0625 -3.671875 C 3.195312 -4.953125 2.765625 -6.40625 2.765625 -8.03125 C 2.765625 -10.070312 3.28125 -11.6875 4.3125 -12.875 C 5.351562 -14.0625 7.070312 -14.90625 9.46875 -15.40625 C 11.863281 -15.914062 15.097656 -16.171875 19.171875 -16.171875 L 21.828125 -16.171875 L 21.828125 -12.671875 L 19.234375 -12.671875 C 16.515625 -12.671875 14.363281 -12.535156 12.78125 -12.265625 C 11.195312 -12.003906 10.070312 -11.5625 9.40625 -10.9375 C 8.75 -10.320312 8.421875 -9.46875 8.421875 -8.375 C 8.421875 -6.9375 8.910156 -5.773438 9.890625 -4.890625 C 10.878906 -4.003906 12.238281 -3.5625 13.96875 -3.5625 C 15.363281 -3.5625 16.585938 -3.890625 17.640625 -4.546875 C 18.703125 -5.210938 19.539062 -6.109375 20.15625 -7.234375 C 20.78125 -8.367188 21.09375 -9.671875 21.09375 -11.140625 L 21.09375 -17.640625 C 21.09375 -19.796875 20.640625 -21.34375 19.734375 -22.28125 C 18.828125 -23.226562 17.335938 -23.703125 15.265625 -23.703125 C 14.066406 -23.703125 12.816406 -23.550781 11.515625 -23.25 C 10.210938 -22.945312 8.863281 -22.4375 7.46875 -21.71875 C 6.820312 -21.414062 6.269531 -21.320312 5.8125 -21.4375 C 5.363281 -21.550781 5.007812 -21.804688 4.75 -22.203125 C 4.488281 -22.597656 4.347656 -23.03125 4.328125 -23.5 C 4.304688 -23.96875 4.414062 -24.425781 4.65625 -24.875 C 4.90625 -25.332031 5.332031 -25.675781 5.9375 -25.90625 C 7.59375 -26.695312 9.234375 -27.257812 10.859375 -27.59375 C 12.484375 -27.9375 14.007812 -28.109375 15.4375 -28.109375 C 17.96875 -28.109375 20.050781 -27.710938 21.6875 -26.921875 C 23.332031 -26.128906 24.550781 -24.921875 25.34375 -23.296875 C 26.132812 -21.679688 26.53125 -19.59375 26.53125 -17.03125 L 26.53125 -2.484375 C 26.53125 -1.578125 26.300781 -0.867188 25.84375 -0.359375 C 25.394531 0.140625 24.738281 0.390625 23.875 0.390625 C 23.039062 0.390625 22.378906 0.140625 21.890625 -0.359375 C 21.398438 -0.867188 21.15625 -1.578125 21.15625 -2.484375 L 21.15625 -6.171875 L 21.65625 -6.171875 C 21.351562 -4.773438 20.796875 -3.578125 19.984375 -2.578125 C 19.179688 -1.578125 18.175781 -0.8125 16.96875 -0.28125 C 15.757812 0.25 14.382812 0.515625 12.84375 0.515625 Z M 12.84375 0.515625 "/></g></g></g><g fill="#1b4965" fill-opacity="1"><g transform="translate(459.043718, 309.973159)"><g><path d="M 14.078125 0.390625 C 13.285156 0.390625 12.597656 0.191406 12.015625 -0.203125 C 11.429688 -0.597656 10.972656 -1.226562 10.640625 -2.09375 L 2.3125 -24.09375 C 2.007812 -24.851562 1.914062 -25.523438 2.03125 -26.109375 C 2.144531 -26.691406 2.4375 -27.148438 2.90625 -27.484375 C 3.382812 -27.828125 4 -28 4.75 -28 C 5.425781 -28 5.976562 -27.835938 6.40625 -27.515625 C 6.84375 -27.191406 7.210938 -26.578125 7.515625 -25.671875 L 14.9375 -4.8125 L 13.578125 -4.8125 L 21.265625 -25.90625 C 21.523438 -26.625 21.878906 -27.148438 22.328125 -27.484375 C 22.785156 -27.828125 23.375 -28 24.09375 -28 C 24.8125 -28 25.40625 -27.828125 25.875 -27.484375 C 26.34375 -27.148438 26.691406 -26.625 26.921875 -25.90625 L 34.453125 -4.8125 L 33.203125 -4.8125 L 40.71875 -25.796875 C 41.019531 -26.660156 41.40625 -27.242188 41.875 -27.546875 C 42.351562 -27.847656 42.894531 -28 43.5 -28 C 44.25 -28 44.820312 -27.804688 45.21875 -27.421875 C 45.613281 -27.046875 45.835938 -26.566406 45.890625 -25.984375 C 45.953125 -25.398438 45.851562 -24.769531 45.59375 -24.09375 L 37.28125 -2.09375 C 36.9375 -1.257812 36.472656 -0.632812 35.890625 -0.21875 C 35.304688 0.1875 34.632812 0.390625 33.875 0.390625 C 33.082031 0.390625 32.394531 0.1875 31.8125 -0.21875 C 31.226562 -0.632812 30.769531 -1.257812 30.4375 -2.09375 L 22.515625 -23.53125 L 25.34375 -23.53125 L 17.484375 -2.09375 C 17.179688 -1.257812 16.734375 -0.632812 16.140625 -0.21875 C 15.554688 0.1875 14.867188 0.390625 14.078125 0.390625 Z M 14.078125 0.390625 "/></g></g></g><g fill="#1b4965" fill-opacity="1"><g transform="translate(506.892913, 309.973159)"><g><path d="M 12.84375 0.515625 C 10.914062 0.515625 9.1875 0.140625 7.65625 -0.609375 C 6.132812 -1.367188 4.9375 -2.390625 4.0625 -3.671875 C 3.195312 -4.953125 2.765625 -6.40625 2.765625 -8.03125 C 2.765625 -10.070312 3.28125 -11.6875 4.3125 -12.875 C 5.351562 -14.0625 7.070312 -14.90625 9.46875 -15.40625 C 11.863281 -15.914062 15.097656 -16.171875 19.171875 -16.171875 L 21.828125 -16.171875 L 21.828125 -12.671875 L 19.234375 -12.671875 C 16.515625 -12.671875 14.363281 -12.535156 12.78125 -12.265625 C 11.195312 -12.003906 10.070312 -11.5625 9.40625 -10.9375 C 8.75 -10.320312 8.421875 -9.46875 8.421875 -8.375 C 8.421875 -6.9375 8.910156 -5.773438 9.890625 -4.890625 C 10.878906 -4.003906 12.238281 -3.5625 13.96875 -3.5625 C 15.363281 -3.5625 16.585938 -3.890625 17.640625 -4.546875 C 18.703125 -5.210938 19.539062 -6.109375 20.15625 -7.234375 C 20.78125 -8.367188 21.09375 -9.671875 21.09375 -11.140625 L 21.09375 -17.640625 C 21.09375 -19.796875 20.640625 -21.34375 19.734375 -22.28125 C 18.828125 -23.226562 17.335938 -23.703125 15.265625 -23.703125 C 14.066406 -23.703125 12.816406 -23.550781 11.515625 -23.25 C 10.210938 -22.945312 8.863281 -22.4375 7.46875 -21.71875 C 6.820312 -21.414062 6.269531 -21.320312 5.8125 -21.4375 C 5.363281 -21.550781 5.007812 -21.804688 4.75 -22.203125 C 4.488281 -22.597656 4.347656 -23.03125 4.328125 -23.5 C 4.304688 -23.96875 4.414062 -24.425781 4.65625 -24.875 C 4.90625 -25.332031 5.332031 -25.675781 5.9375 -25.90625 C 7.59375 -26.695312 9.234375 -27.257812 10.859375 -27.59375 C 12.484375 -27.9375 14.007812 -28.109375 15.4375 -28.109375 C 17.96875 -28.109375 20.050781 -27.710938 21.6875 -26.921875 C 23.332031 -26.128906 24.550781 -24.921875 25.34375 -23.296875 C 26.132812 -21.679688 26.53125 -19.59375 26.53125 -17.03125 L 26.53125 -2.484375 C 26.53125 -1.578125 26.300781 -0.867188 25.84375 -0.359375 C 25.394531 0.140625 24.738281 0.390625 23.875 0.390625 C 23.039062 0.390625 22.378906 0.140625 21.890625 -0.359375 C 21.398438 -0.867188 21.15625 -1.578125 21.15625 -2.484375 L 21.15625 -6.171875 L 21.65625 -6.171875 C 21.351562 -4.773438 20.796875 -3.578125 19.984375 -2.578125 C 19.179688 -1.578125 18.175781 -0.8125 16.96875 -0.28125 C 15.757812 0.25 14.382812 0.515625 12.84375 0.515625 Z M 12.84375 0.515625 "/></g></g></g><g fill="#1b4965" fill-opacity="1"><g transform="translate(537.265292, 309.973159)"><g><path d="M 10.515625 10.578125 C 9.835938 10.578125 9.28125 10.394531 8.84375 10.03125 C 8.414062 9.675781 8.171875 9.207031 8.109375 8.625 C 8.054688 8.039062 8.160156 7.410156 8.421875 6.734375 L 12.28125 -1.921875 L 12.28125 0.515625 L 1.703125 -24.09375 C 1.429688 -24.769531 1.332031 -25.410156 1.40625 -26.015625 C 1.488281 -26.617188 1.773438 -27.097656 2.265625 -27.453125 C 2.753906 -27.816406 3.410156 -28 4.234375 -28 C 4.953125 -28 5.519531 -27.828125 5.9375 -27.484375 C 6.351562 -27.148438 6.726562 -26.566406 7.0625 -25.734375 L 15.609375 -4.640625 L 14.03125 -4.640625 L 22.6875 -25.734375 C 23.019531 -26.597656 23.410156 -27.191406 23.859375 -27.515625 C 24.316406 -27.835938 24.941406 -28 25.734375 -28 C 26.410156 -28 26.945312 -27.816406 27.34375 -27.453125 C 27.738281 -27.097656 27.984375 -26.628906 28.078125 -26.046875 C 28.171875 -25.460938 28.066406 -24.832031 27.765625 -24.15625 L 13.625 8.375 C 13.25 9.238281 12.828125 9.820312 12.359375 10.125 C 11.890625 10.425781 11.273438 10.578125 10.515625 10.578125 Z M 10.515625 10.578125 "/></g></g></g></svg>