<svg xmlns="http://www.w3.org/2000/svg" xmlns:xlink="http://www.w3.org/1999/xlink" width="968" zoomAndPan="magnify" viewBox="0 0 726 343.499995" height="458" preserveAspectRatio="xMidYMid meet" version="1.0"><defs><g/></defs><g fill="#0097b2" fill-opacity="1"><g transform="translate(49.418661, 224.400009)"><g><path d="M 28.484375 1.703125 C 23.671875 1.703125 19.96875 0.375 17.375 -2.28125 C 14.78125 -4.9375 13.484375 -8.796875 13.484375 -13.859375 L 13.484375 -118.46875 C 13.484375 -123.40625 14.8125 -127.203125 17.46875 -129.859375 C 20.125 -132.515625 23.921875 -133.84375 28.859375 -133.84375 L 93.796875 -133.84375 C 97.585938 -133.84375 100.460938 -132.863281 102.421875 -130.90625 C 104.390625 -128.945312 105.375 -126.128906 105.375 -122.453125 C 105.375 -118.660156 104.390625 -115.78125 102.421875 -113.8125 C 100.460938 -111.851562 97.585938 -110.875 93.796875 -110.875 L 42.90625 -110.875 L 42.90625 -78.21875 L 89.609375 -78.21875 C 93.410156 -78.21875 96.320312 -77.238281 98.34375 -75.28125 C 100.375 -73.320312 101.390625 -70.503906 101.390625 -66.828125 C 101.390625 -63.160156 100.375 -60.3125 98.34375 -58.28125 C 96.320312 -56.257812 93.410156 -55.25 89.609375 -55.25 L 42.90625 -55.25 L 42.90625 -13.859375 C 42.90625 -3.484375 38.097656 1.703125 28.484375 1.703125 Z M 28.484375 1.703125 "/></g></g></g><g fill="#0097b2" fill-opacity="1"><g transform="translate(153.841748, 224.400009)"><g><path d="M 25.4375 1.515625 C 20.757812 1.515625 17.1875 0.15625 14.71875 -2.5625 C 12.25 -5.28125 11.015625 -9.109375 11.015625 -14.046875 L 11.015625 -78.984375 C 11.015625 -84.046875 12.25 -87.9375 14.71875 -90.65625 C 17.1875 -93.375 20.757812 -94.734375 25.4375 -94.734375 C 30 -94.734375 33.515625 -93.375 35.984375 -90.65625 C 38.453125 -87.9375 39.6875 -84.046875 39.6875 -78.984375 L 39.6875 -14.046875 C 39.6875 -9.109375 38.484375 -5.28125 36.078125 -2.5625 C 33.671875 0.15625 30.125 1.515625 25.4375 1.515625 Z M 25.4375 -110.3125 C 20.125 -110.3125 16.039062 -111.546875 13.1875 -114.015625 C 10.34375 -116.484375 8.921875 -119.992188 8.921875 -124.546875 C 8.921875 -129.234375 10.34375 -132.8125 13.1875 -135.28125 C 16.039062 -137.75 20.125 -138.984375 25.4375 -138.984375 C 30.757812 -138.984375 34.8125 -137.75 37.59375 -135.28125 C 40.375 -132.8125 41.765625 -129.234375 41.765625 -124.546875 C 41.765625 -119.992188 40.375 -116.484375 37.59375 -114.015625 C 34.8125 -111.546875 30.757812 -110.3125 25.4375 -110.3125 Z M 25.4375 -110.3125 "/></g></g></g><g fill="#0097b2" fill-opacity="1"><g transform="translate(200.926986, 224.400009)"><g><path d="M 20.890625 1.328125 C 17.335938 1.328125 14.484375 0.347656 12.328125 -1.609375 C 10.179688 -3.578125 9.078125 -6.078125 9.015625 -9.109375 C 8.953125 -12.148438 10.1875 -15.253906 12.71875 -18.421875 L 42.15625 -54.484375 L 42.15625 -41.578125 L 14.8125 -75 C 12.15625 -78.289062 10.890625 -81.453125 11.015625 -84.484375 C 11.140625 -87.523438 12.273438 -89.992188 14.421875 -91.890625 C 16.578125 -93.785156 19.425781 -94.734375 22.96875 -94.734375 C 26.382812 -94.734375 29.234375 -94.164062 31.515625 -93.03125 C 33.796875 -91.894531 35.945312 -89.992188 37.96875 -87.328125 L 58.28125 -61.328125 L 48.21875 -61.328125 L 68.546875 -87.328125 C 70.691406 -89.992188 72.90625 -91.894531 75.1875 -93.03125 C 77.46875 -94.164062 80.25 -94.734375 83.53125 -94.734375 C 87.082031 -94.734375 89.929688 -93.753906 92.078125 -91.796875 C 94.234375 -89.835938 95.34375 -87.335938 95.40625 -84.296875 C 95.46875 -81.253906 94.171875 -78.15625 91.515625 -75 L 64.171875 -41.578125 L 64.171875 -54.484375 L 93.796875 -18.421875 C 96.453125 -15.378906 97.710938 -12.335938 97.578125 -9.296875 C 97.453125 -6.265625 96.28125 -3.734375 94.0625 -1.703125 C 91.851562 0.316406 88.976562 1.328125 85.4375 1.328125 C 82.019531 1.328125 79.203125 0.726562 76.984375 -0.46875 C 74.773438 -1.675781 72.59375 -3.546875 70.4375 -6.078125 L 48.21875 -34.359375 L 57.90625 -34.359375 L 35.6875 -6.078125 C 33.664062 -3.671875 31.546875 -1.832031 29.328125 -0.5625 C 27.117188 0.695312 24.304688 1.328125 20.890625 1.328125 Z M 20.890625 1.328125 "/></g></g></g><g fill="#ff6012" fill-opacity="1"><g transform="translate(303.263996, 224.400009)"><g><path d="M 27.15625 1.703125 C 22.84375 1.703125 19.546875 0.503906 17.265625 -1.890625 C 14.992188 -4.296875 13.859375 -7.65625 13.859375 -11.96875 L 13.859375 -121.890625 C 13.859375 -126.191406 15.09375 -129.546875 17.5625 -131.953125 C 20.03125 -134.359375 23.414062 -135.5625 27.71875 -135.5625 C 31.519531 -135.5625 34.523438 -134.832031 36.734375 -133.375 C 38.953125 -131.914062 41.007812 -129.414062 42.90625 -125.875 L 86.765625 -45.75 L 80.3125 -45.75 L 124.171875 -125.875 C 126.066406 -129.414062 128.117188 -131.914062 130.328125 -133.375 C 132.546875 -134.832031 135.492188 -135.5625 139.171875 -135.5625 C 143.472656 -135.5625 146.789062 -134.359375 149.125 -131.953125 C 151.46875 -129.546875 152.640625 -126.191406 152.640625 -121.890625 L 152.640625 -11.96875 C 152.640625 -7.65625 151.5 -4.296875 149.21875 -1.890625 C 146.945312 0.503906 143.660156 1.703125 139.359375 1.703125 C 135.054688 1.703125 131.734375 0.503906 129.390625 -1.890625 C 127.046875 -4.296875 125.875 -7.65625 125.875 -11.96875 L 125.875 -88.859375 L 130.046875 -88.859375 L 94.734375 -25.625 C 93.222656 -23.226562 91.609375 -21.425781 89.890625 -20.21875 C 88.179688 -19.019531 85.9375 -18.421875 83.15625 -18.421875 C 80.375 -18.421875 78.097656 -19.050781 76.328125 -20.3125 C 74.554688 -21.582031 72.972656 -23.351562 71.578125 -25.625 L 35.890625 -89.046875 L 40.4375 -89.046875 L 40.4375 -11.96875 C 40.4375 -7.65625 39.328125 -4.296875 37.109375 -1.890625 C 34.898438 0.503906 31.582031 1.703125 27.15625 1.703125 Z M 27.15625 1.703125 "/></g></g></g><g fill="#ff6012" fill-opacity="1"><g transform="translate(465.784366, 224.400009)"><g><path d="M 59.421875 2.09375 C 48.410156 2.09375 38.945312 0.0976562 31.03125 -3.890625 C 23.125 -7.878906 17.050781 -13.507812 12.8125 -20.78125 C 8.570312 -28.0625 6.453125 -36.640625 6.453125 -46.515625 C 6.453125 -56.128906 8.476562 -64.578125 12.53125 -71.859375 C 16.582031 -79.140625 22.242188 -84.835938 29.515625 -88.953125 C 36.796875 -93.066406 45.054688 -95.125 54.296875 -95.125 C 61.003906 -95.125 67.078125 -94.015625 72.515625 -91.796875 C 77.960938 -89.578125 82.648438 -86.410156 86.578125 -82.296875 C 90.503906 -78.191406 93.476562 -73.195312 95.5 -67.3125 C 97.519531 -61.425781 98.53125 -54.875 98.53125 -47.65625 C 98.53125 -45.25 97.769531 -43.441406 96.25 -42.234375 C 94.738281 -41.035156 92.523438 -40.4375 89.609375 -40.4375 L 30 -40.4375 L 30 -55.25 L 77.84375 -55.25 L 74.796875 -52.59375 C 74.796875 -57.78125 74.035156 -62.113281 72.515625 -65.59375 C 71.003906 -69.070312 68.820312 -71.695312 65.96875 -73.46875 C 63.125 -75.25 59.613281 -76.140625 55.4375 -76.140625 C 50.757812 -76.140625 46.773438 -75.0625 43.484375 -72.90625 C 40.191406 -70.75 37.65625 -67.644531 35.875 -63.59375 C 34.101562 -59.550781 33.21875 -54.679688 33.21875 -48.984375 L 33.21875 -47.46875 C 33.21875 -37.84375 35.460938 -30.75 39.953125 -26.1875 C 44.453125 -21.632812 51.132812 -19.359375 60 -19.359375 C 63.03125 -19.359375 66.507812 -19.738281 70.4375 -20.5 C 74.363281 -21.257812 78.035156 -22.460938 81.453125 -24.109375 C 84.359375 -25.503906 86.953125 -25.976562 89.234375 -25.53125 C 91.515625 -25.09375 93.285156 -24.050781 94.546875 -22.40625 C 95.816406 -20.757812 96.546875 -18.859375 96.734375 -16.703125 C 96.921875 -14.554688 96.441406 -12.4375 95.296875 -10.34375 C 94.160156 -8.257812 92.265625 -6.519531 89.609375 -5.125 C 85.304688 -2.71875 80.460938 -0.914062 75.078125 0.28125 C 69.703125 1.488281 64.484375 2.09375 59.421875 2.09375 Z M 59.421875 2.09375 "/></g></g></g><g fill="#0097b2" fill-opacity="1"><g transform="translate(64.396855, 310.974075)"><g><path d="M 15.28125 0.515625 C 12.75 0.515625 10.550781 -0.078125 8.6875 -1.265625 C 6.820312 -2.460938 5.367188 -4.144531 4.328125 -6.3125 C 3.296875 -8.476562 2.78125 -11.015625 2.78125 -13.921875 C 2.78125 -16.867188 3.285156 -19.414062 4.296875 -21.5625 C 5.316406 -23.71875 6.769531 -25.390625 8.65625 -26.578125 C 10.539062 -27.765625 12.734375 -28.359375 15.234375 -28.359375 C 17.609375 -28.359375 19.65625 -27.789062 21.375 -26.65625 C 23.09375 -25.53125 24.289062 -24.003906 24.96875 -22.078125 L 24.6875 -22.078125 L 24.6875 -39.90625 L 30.625 -39.90625 L 30.625 0 L 25.015625 0 L 25.015625 -6.109375 L 25.25 -6.109375 C 24.53125 -4.035156 23.289062 -2.410156 21.53125 -1.234375 C 19.78125 -0.0664062 17.695312 0.515625 15.28125 0.515625 Z M 16.75 -4.125 C 19.207031 -4.125 21.148438 -4.984375 22.578125 -6.703125 C 24.015625 -8.421875 24.734375 -10.828125 24.734375 -13.921875 C 24.734375 -17.054688 24.015625 -19.460938 22.578125 -21.140625 C 21.148438 -22.816406 19.207031 -23.65625 16.75 -23.65625 C 14.300781 -23.65625 12.347656 -22.816406 10.890625 -21.140625 C 9.441406 -19.460938 8.71875 -17.054688 8.71875 -13.921875 C 8.71875 -10.828125 9.441406 -8.421875 10.890625 -6.703125 C 12.347656 -4.984375 14.300781 -4.125 16.75 -4.125 Z M 16.75 -4.125 "/></g></g></g><g fill="#0097b2" fill-opacity="1"><g transform="translate(99.376439, 310.974075)"><g><path d="M 16.703125 0.515625 C 13.867188 0.515625 11.40625 -0.078125 9.3125 -1.265625 C 7.21875 -2.460938 5.601562 -4.144531 4.46875 -6.3125 C 3.34375 -8.476562 2.78125 -11.015625 2.78125 -13.921875 C 2.78125 -16.867188 3.34375 -19.414062 4.46875 -21.5625 C 5.601562 -23.71875 7.21875 -25.390625 9.3125 -26.578125 C 11.40625 -27.765625 13.867188 -28.359375 16.703125 -28.359375 C 19.566406 -28.359375 22.035156 -27.765625 24.109375 -26.578125 C 26.191406 -25.390625 27.796875 -23.71875 28.921875 -21.5625 C 30.054688 -19.414062 30.625 -16.867188 30.625 -13.921875 C 30.625 -11.015625 30.054688 -8.476562 28.921875 -6.3125 C 27.796875 -4.144531 26.191406 -2.460938 24.109375 -1.265625 C 22.035156 -0.078125 19.566406 0.515625 16.703125 0.515625 Z M 16.703125 -4.25 C 19.148438 -4.25 21.09375 -5.097656 22.53125 -6.796875 C 23.96875 -8.492188 24.6875 -10.890625 24.6875 -13.984375 C 24.6875 -17.078125 23.96875 -19.453125 22.53125 -21.109375 C 21.09375 -22.773438 19.148438 -23.609375 16.703125 -23.609375 C 14.242188 -23.609375 12.296875 -22.773438 10.859375 -21.109375 C 9.429688 -19.453125 8.71875 -17.078125 8.71875 -13.984375 C 8.71875 -10.890625 9.429688 -8.492188 10.859375 -6.796875 C 12.296875 -5.097656 14.242188 -4.25 16.703125 -4.25 Z M 16.703125 -4.25 "/></g></g></g><g fill="#0097b2" fill-opacity="1"><g transform="translate(132.771183, 310.974075)"><g><path d="M 4.359375 0 L 4.359375 -27.859375 L 10.015625 -27.859375 L 10.015625 -21.96875 L 9.734375 -21.96875 C 10.597656 -24.039062 11.925781 -25.625 13.71875 -26.71875 C 15.519531 -27.8125 17.550781 -28.359375 19.8125 -28.359375 C 22.070312 -28.359375 23.945312 -27.953125 25.4375 -27.140625 C 26.9375 -26.328125 28.0625 -25.070312 28.8125 -23.375 C 29.570312 -21.675781 29.953125 -19.566406 29.953125 -17.046875 L 29.953125 0 L 23.953125 0 L 23.953125 -16.703125 C 23.953125 -18.210938 23.75 -19.46875 23.34375 -20.46875 C 22.945312 -21.46875 22.320312 -22.222656 21.46875 -22.734375 C 20.625 -23.242188 19.523438 -23.5 18.171875 -23.5 C 16.617188 -23.5 15.25 -23.15625 14.0625 -22.46875 C 12.875 -21.789062 11.957031 -20.859375 11.3125 -19.671875 C 10.675781 -18.484375 10.359375 -17.113281 10.359375 -15.5625 L 10.359375 0 Z M 4.359375 0 "/></g></g></g><g fill="#0097b2" fill-opacity="1"><g transform="translate(166.958353, 310.974075)"><g><path d="M 4.703125 -23.890625 L 3.234375 -39.90625 L 10.140625 -39.90625 L 8.71875 -23.890625 Z M 4.703125 -23.890625 "/></g></g></g><g fill="#0097b2" fill-opacity="1"><g transform="translate(180.31625, 310.974075)"><g><path d="M 16.53125 0.515625 C 12.976562 0.515625 10.320312 -0.390625 8.5625 -2.203125 C 6.8125 -4.015625 5.9375 -6.640625 5.9375 -10.078125 L 5.9375 -23.15625 L 0.515625 -23.15625 L 0.515625 -27.859375 L 6.109375 -27.859375 L 6.109375 -36.109375 L 11.9375 -36.109375 L 11.9375 -27.859375 L 21.109375 -27.859375 L 21.109375 -23.15625 L 11.9375 -23.15625 L 11.9375 -10.46875 C 11.9375 -8.46875 12.378906 -6.96875 13.265625 -5.96875 C 14.160156 -4.96875 15.550781 -4.46875 17.4375 -4.46875 C 18.113281 -4.46875 18.769531 -4.539062 19.40625 -4.6875 C 20.050781 -4.84375 20.695312 -5.035156 21.34375 -5.265625 L 22.25 -0.734375 C 21.570312 -0.316406 20.703125 -0.00390625 19.640625 0.203125 C 18.585938 0.410156 17.550781 0.515625 16.53125 0.515625 Z M 16.53125 0.515625 "/></g></g></g><g fill="#0097b2" fill-opacity="1"><g transform="translate(202.843551, 310.974075)"><g/></g></g><g fill="#0097b2" fill-opacity="1"><g transform="translate(218.352302, 310.974075)"><g><path d="M 16.53125 0.515625 C 12.976562 0.515625 10.320312 -0.390625 8.5625 -2.203125 C 6.8125 -4.015625 5.9375 -6.640625 5.9375 -10.078125 L 5.9375 -23.15625 L 0.515625 -23.15625 L 0.515625 -27.859375 L 6.109375 -27.859375 L 6.109375 -36.109375 L 11.9375 -36.109375 L 11.9375 -27.859375 L 21.109375 -27.859375 L 21.109375 -23.15625 L 11.9375 -23.15625 L 11.9375 -10.46875 C 11.9375 -8.46875 12.378906 -6.96875 13.265625 -5.96875 C 14.160156 -4.96875 15.550781 -4.46875 17.4375 -4.46875 C 18.113281 -4.46875 18.769531 -4.539062 19.40625 -4.6875 C 20.050781 -4.84375 20.695312 -5.035156 21.34375 -5.265625 L 22.25 -0.734375 C 21.570312 -0.316406 20.703125 -0.00390625 19.640625 0.203125 C 18.585938 0.410156 17.550781 0.515625 16.53125 0.515625 Z M 16.53125 0.515625 "/></g></g></g><g fill="#0097b2" fill-opacity="1"><g transform="translate(240.879603, 310.974075)"><g><path d="M 4.359375 0 L 4.359375 -39.90625 L 10.1875 -39.90625 L 10.1875 -22.078125 L 9.84375 -22.078125 C 10.675781 -24.078125 11.976562 -25.625 13.75 -26.71875 C 15.53125 -27.8125 17.550781 -28.359375 19.8125 -28.359375 C 22.070312 -28.359375 23.945312 -27.941406 25.4375 -27.109375 C 26.9375 -26.285156 28.0625 -25.03125 28.8125 -23.34375 C 29.570312 -21.664062 29.953125 -19.566406 29.953125 -17.046875 L 29.953125 0 L 23.953125 0 L 23.953125 -16.703125 C 23.953125 -18.210938 23.75 -19.46875 23.34375 -20.46875 C 22.945312 -21.46875 22.320312 -22.222656 21.46875 -22.734375 C 20.625 -23.242188 19.523438 -23.5 18.171875 -23.5 C 16.617188 -23.5 15.257812 -23.15625 14.09375 -22.46875 C 12.925781 -21.789062 12.007812 -20.859375 11.34375 -19.671875 C 10.6875 -18.484375 10.359375 -17.113281 10.359375 -15.5625 L 10.359375 0 Z M 4.359375 0 "/></g></g></g><g fill="#0097b2" fill-opacity="1"><g transform="translate(275.066784, 310.974075)"><g><path d="M 4.359375 0 L 4.359375 -27.859375 L 9.96875 -27.859375 L 9.96875 -21.234375 L 9.6875 -21.234375 C 10.320312 -23.378906 11.441406 -25.054688 13.046875 -26.265625 C 14.648438 -27.472656 16.71875 -28.171875 19.25 -28.359375 L 21.5625 -28.46875 L 22.015625 -23.265625 L 18.0625 -22.875 C 15.601562 -22.644531 13.710938 -21.847656 12.390625 -20.484375 C 11.078125 -19.128906 10.421875 -17.335938 10.421875 -15.109375 L 10.421875 0 Z M 4.359375 0 "/></g></g></g><g fill="#0097b2" fill-opacity="1"><g transform="translate(297.877086, 310.974075)"><g><path d="M 16.703125 0.515625 C 13.867188 0.515625 11.40625 -0.078125 9.3125 -1.265625 C 7.21875 -2.460938 5.601562 -4.144531 4.46875 -6.3125 C 3.34375 -8.476562 2.78125 -11.015625 2.78125 -13.921875 C 2.78125 -16.867188 3.34375 -19.414062 4.46875 -21.5625 C 5.601562 -23.71875 7.21875 -25.390625 9.3125 -26.578125 C 11.40625 -27.765625 13.867188 -28.359375 16.703125 -28.359375 C 19.566406 -28.359375 22.035156 -27.765625 24.109375 -26.578125 C 26.191406 -25.390625 27.796875 -23.71875 28.921875 -21.5625 C 30.054688 -19.414062 30.625 -16.867188 30.625 -13.921875 C 30.625 -11.015625 30.054688 -8.476562 28.921875 -6.3125 C 27.796875 -4.144531 26.191406 -2.460938 24.109375 -1.265625 C 22.035156 -0.078125 19.566406 0.515625 16.703125 0.515625 Z M 16.703125 -4.25 C 19.148438 -4.25 21.09375 -5.097656 22.53125 -6.796875 C 23.96875 -8.492188 24.6875 -10.890625 24.6875 -13.984375 C 24.6875 -17.078125 23.96875 -19.453125 22.53125 -21.109375 C 21.09375 -22.773438 19.148438 -23.609375 16.703125 -23.609375 C 14.242188 -23.609375 12.296875 -22.773438 10.859375 -21.109375 C 9.429688 -19.453125 8.71875 -17.078125 8.71875 -13.984375 C 8.71875 -10.890625 9.429688 -8.492188 10.859375 -6.796875 C 12.296875 -5.097656 14.242188 -4.25 16.703125 -4.25 Z M 16.703125 -4.25 "/></g></g></g><g fill="#0097b2" fill-opacity="1"><g transform="translate(331.271818, 310.974075)"><g><path d="M 11.328125 0 L 1.078125 -27.859375 L 7.125 -27.859375 L 14.71875 -5.65625 L 13.921875 -5.65625 L 22.015625 -27.859375 L 26.65625 -27.859375 L 34.640625 -5.65625 L 33.90625 -5.65625 L 41.5 -27.859375 L 47.328125 -27.859375 L 37.140625 0 L 31.765625 0 L 23.328125 -22.75 L 25.078125 -22.75 L 16.703125 0 Z M 11.328125 0 "/></g></g></g><g fill="#0097b2" fill-opacity="1"><g transform="translate(379.7225, 310.974075)"><g/></g></g><g fill="#0097b2" fill-opacity="1"><g transform="translate(395.23125, 310.974075)"><g><path d="M 4.46875 0 L 4.46875 -27.859375 L 10.078125 -27.859375 L 10.078125 -21.90625 L 9.796875 -21.90625 C 10.285156 -23.226562 10.972656 -24.367188 11.859375 -25.328125 C 12.742188 -26.296875 13.804688 -27.039062 15.046875 -27.5625 C 16.296875 -28.09375 17.675781 -28.359375 19.1875 -28.359375 C 21.53125 -28.359375 23.457031 -27.789062 24.96875 -26.65625 C 26.476562 -25.53125 27.476562 -23.925781 27.96875 -21.84375 L 27.515625 -21.84375 C 28.234375 -23.769531 29.441406 -25.335938 31.140625 -26.546875 C 32.835938 -27.753906 34.894531 -28.359375 37.3125 -28.359375 C 39.414062 -28.359375 41.175781 -27.941406 42.59375 -27.109375 C 44.007812 -26.285156 45.078125 -25.039062 45.796875 -23.375 C 46.515625 -21.71875 46.875 -19.609375 46.875 -17.046875 L 46.875 0 L 40.921875 0 L 40.921875 -16.75 C 40.921875 -19.019531 40.523438 -20.710938 39.734375 -21.828125 C 38.941406 -22.941406 37.566406 -23.5 35.609375 -23.5 C 34.171875 -23.5 32.921875 -23.164062 31.859375 -22.5 C 30.804688 -21.84375 30 -20.910156 29.4375 -19.703125 C 28.875 -18.492188 28.59375 -17.097656 28.59375 -15.515625 L 28.59375 0 L 22.703125 0 L 22.703125 -16.75 C 22.703125 -19.019531 22.273438 -20.710938 21.421875 -21.828125 C 20.578125 -22.941406 19.25 -23.5 17.4375 -23.5 C 15.96875 -23.5 14.710938 -23.144531 13.671875 -22.4375 C 12.628906 -21.738281 11.828125 -20.796875 11.265625 -19.609375 C 10.703125 -18.421875 10.421875 -17.070312 10.421875 -15.5625 L 10.421875 0 Z M 4.46875 0 "/></g></g></g><g fill="#0097b2" fill-opacity="1"><g transform="translate(446.455422, 310.974075)"><g><path d="M 17.890625 0.515625 C 14.753906 0.515625 12.050781 -0.0546875 9.78125 -1.203125 C 7.519531 -2.359375 5.785156 -4.019531 4.578125 -6.1875 C 3.378906 -8.363281 2.78125 -10.941406 2.78125 -13.921875 C 2.78125 -16.753906 3.351562 -19.253906 4.5 -21.421875 C 5.65625 -23.597656 7.28125 -25.296875 9.375 -26.515625 C 11.46875 -27.742188 13.890625 -28.359375 16.640625 -28.359375 C 19.316406 -28.359375 21.597656 -27.789062 23.484375 -26.65625 C 25.378906 -25.53125 26.832031 -23.921875 27.84375 -21.828125 C 28.863281 -19.734375 29.375 -17.234375 29.375 -14.328125 L 29.375 -12.390625 L 7.421875 -12.390625 L 7.421875 -16.1875 L 25.296875 -16.1875 L 24.34375 -15.234375 C 24.34375 -18.097656 23.691406 -20.285156 22.390625 -21.796875 C 21.085938 -23.304688 19.226562 -24.0625 16.8125 -24.0625 C 15.070312 -24.0625 13.578125 -23.671875 12.328125 -22.890625 C 11.085938 -22.117188 10.128906 -21.023438 9.453125 -19.609375 C 8.773438 -18.203125 8.4375 -16.515625 8.4375 -14.546875 L 8.4375 -14.046875 C 8.4375 -11.847656 8.800781 -10.015625 9.53125 -8.546875 C 10.269531 -7.078125 11.351562 -5.984375 12.78125 -5.265625 C 14.21875 -4.546875 15.957031 -4.1875 18 -4.1875 C 19.550781 -4.1875 21.109375 -4.398438 22.671875 -4.828125 C 24.234375 -5.265625 25.675781 -6.03125 27 -7.125 L 28.875 -3 C 27.476562 -1.863281 25.785156 -0.992188 23.796875 -0.390625 C 21.816406 0.210938 19.847656 0.515625 17.890625 0.515625 Z M 17.890625 0.515625 "/></g></g></g><g fill="#0097b2" fill-opacity="1"><g transform="translate(478.435115, 310.974075)"><g/></g></g><g fill="#0097b2" fill-opacity="1"><g transform="translate(493.943866, 310.974075)"><g><path d="M 13.59375 0.515625 C 11.625 0.515625 9.847656 0.140625 8.265625 -0.609375 C 6.679688 -1.367188 5.445312 -2.398438 4.5625 -3.703125 C 3.675781 -5.003906 3.234375 -6.46875 3.234375 -8.09375 C 3.234375 -10.164062 3.785156 -11.804688 4.890625 -13.015625 C 6.003906 -14.222656 7.785156 -15.097656 10.234375 -15.640625 C 12.691406 -16.191406 15.941406 -16.46875 19.984375 -16.46875 L 23.265625 -16.46875 L 23.265625 -12.734375 L 20.15625 -12.734375 C 18.113281 -12.734375 16.394531 -12.664062 15 -12.53125 C 13.601562 -12.40625 12.46875 -12.171875 11.59375 -11.828125 C 10.726562 -11.492188 10.097656 -11.050781 9.703125 -10.5 C 9.304688 -9.957031 9.109375 -9.269531 9.109375 -8.4375 C 9.109375 -7 9.628906 -5.875 10.671875 -5.0625 C 11.710938 -4.25 13.082031 -3.84375 14.78125 -3.84375 C 16.25 -3.84375 17.546875 -4.171875 18.671875 -4.828125 C 19.804688 -5.492188 20.710938 -6.398438 21.390625 -7.546875 C 22.078125 -8.703125 22.421875 -10 22.421875 -11.4375 L 22.421875 -17.828125 C 22.421875 -19.941406 21.898438 -21.453125 20.859375 -22.359375 C 19.816406 -23.265625 18.203125 -23.71875 16.015625 -23.71875 C 14.398438 -23.71875 12.789062 -23.488281 11.1875 -23.03125 C 9.582031 -22.582031 7.910156 -21.847656 6.171875 -20.828125 L 4.359375 -25.015625 C 5.453125 -25.734375 6.664062 -26.335938 8 -26.828125 C 9.34375 -27.316406 10.738281 -27.691406 12.1875 -27.953125 C 13.644531 -28.222656 15.070312 -28.359375 16.46875 -28.359375 C 19 -28.359375 21.128906 -27.960938 22.859375 -27.171875 C 24.597656 -26.378906 25.921875 -25.171875 26.828125 -23.546875 C 27.734375 -21.921875 28.1875 -19.804688 28.1875 -17.203125 L 28.1875 0 L 22.8125 0 L 22.8125 -6.0625 L 23.046875 -6.0625 C 22.628906 -4.769531 21.984375 -3.625 21.109375 -2.625 C 20.242188 -1.625 19.175781 -0.847656 17.90625 -0.296875 C 16.644531 0.242188 15.207031 0.515625 13.59375 0.515625 Z M 13.59375 0.515625 "/></g></g></g><g fill="#0097b2" fill-opacity="1"><g transform="translate(526.376406, 310.974075)"><g><path d="M 11.328125 0 L 1.078125 -27.859375 L 7.125 -27.859375 L 14.71875 -5.65625 L 13.921875 -5.65625 L 22.015625 -27.859375 L 26.65625 -27.859375 L 34.640625 -5.65625 L 33.90625 -5.65625 L 41.5 -27.859375 L 47.328125 -27.859375 L 37.140625 0 L 31.765625 0 L 23.328125 -22.75 L 25.078125 -22.75 L 16.703125 0 Z M 11.328125 0 "/></g></g></g><g fill="#0097b2" fill-opacity="1"><g transform="translate(574.827088, 310.974075)"><g><path d="M 13.59375 0.515625 C 11.625 0.515625 9.847656 0.140625 8.265625 -0.609375 C 6.679688 -1.367188 5.445312 -2.398438 4.5625 -3.703125 C 3.675781 -5.003906 3.234375 -6.46875 3.234375 -8.09375 C 3.234375 -10.164062 3.785156 -11.804688 4.890625 -13.015625 C 6.003906 -14.222656 7.785156 -15.097656 10.234375 -15.640625 C 12.691406 -16.191406 15.941406 -16.46875 19.984375 -16.46875 L 23.265625 -16.46875 L 23.265625 -12.734375 L 20.15625 -12.734375 C 18.113281 -12.734375 16.394531 -12.664062 15 -12.53125 C 13.601562 -12.40625 12.46875 -12.171875 11.59375 -11.828125 C 10.726562 -11.492188 10.097656 -11.050781 9.703125 -10.5 C 9.304688 -9.957031 9.109375 -9.269531 9.109375 -8.4375 C 9.109375 -7 9.628906 -5.875 10.671875 -5.0625 C 11.710938 -4.25 13.082031 -3.84375 14.78125 -3.84375 C 16.25 -3.84375 17.546875 -4.171875 18.671875 -4.828125 C 19.804688 -5.492188 20.710938 -6.398438 21.390625 -7.546875 C 22.078125 -8.703125 22.421875 -10 22.421875 -11.4375 L 22.421875 -17.828125 C 22.421875 -19.941406 21.898438 -21.453125 20.859375 -22.359375 C 19.816406 -23.265625 18.203125 -23.71875 16.015625 -23.71875 C 14.398438 -23.71875 12.789062 -23.488281 11.1875 -23.03125 C 9.582031 -22.582031 7.910156 -21.847656 6.171875 -20.828125 L 4.359375 -25.015625 C 5.453125 -25.734375 6.664062 -26.335938 8 -26.828125 C 9.34375 -27.316406 10.738281 -27.691406 12.1875 -27.953125 C 13.644531 -28.222656 15.070312 -28.359375 16.46875 -28.359375 C 19 -28.359375 21.128906 -27.960938 22.859375 -27.171875 C 24.597656 -26.378906 25.921875 -25.171875 26.828125 -23.546875 C 27.734375 -21.921875 28.1875 -19.804688 28.1875 -17.203125 L 28.1875 0 L 22.8125 0 L 22.8125 -6.0625 L 23.046875 -6.0625 C 22.628906 -4.769531 21.984375 -3.625 21.109375 -2.625 C 20.242188 -1.625 19.175781 -0.847656 17.90625 -0.296875 C 16.644531 0.242188 15.207031 0.515625 13.59375 0.515625 Z M 13.59375 0.515625 "/></g></g></g><g fill="#0097b2" fill-opacity="1"><g transform="translate(607.259629, 310.974075)"><g><path d="M 7.421875 10.1875 L 12.90625 -2.09375 L 12.90625 1.296875 L 0.453125 -27.859375 L 6.84375 -27.859375 L 15.734375 -5.375 L 14.78125 -5.375 L 23.78125 -27.859375 L 29.890625 -27.859375 L 13.59375 10.1875 Z M 7.421875 10.1875 "/></g></g></g></svg>